<svg xmlns="http://www.w3.org/2000/svg" viewBox="0 0 64 64" id="survey-analytics"><path d="M30.05,60H12a5,5,0,0,1-5-5V13a5,5,0,0,1,5-5h5v2H12a3,3,0,0,0-3,3V55a3,3,0,0,0,3,3H30.05ZM49,13a5,5,0,0,0-5-5H39v2h5a3,3,0,0,1,3,3V28h2ZM26.94,54H13V14h4V12H12a1,1,0,0,0-1,1V55a1,1,0,0,0,1,1H26.94ZM45,13a1,1,0,0,0-1-1H39v2h4V28h2Zm-8,4V9a1,1,0,0,0-1-1H32a4,4,0,0,0-8,0H20a1,1,0,0,0-1,1v8a1,1,0,0,0,1,1H36A1,1,0,0,0,37,17ZM21,10h4a1,1,0,0,0,1-1V8a2,2,0,0,1,4,0V9a1,1,0,0,0,1,1h4v6H21Zm10,2H25v2h6Zm8,11H29v2H39Zm0,6H29v2H39Zm-18.29-.29,4-4-1.42-1.42-3.42,3.42-2.32-1.54-1.1,1.66,3,2A.92.92,0,0,0,20,29,1,1,0,0,0,20.71,28.71Zm0,8,4-4-1.42-1.42-3.42,3.42-2.32-1.54-1.1,1.66,3,2A.92.92,0,0,0,20,37,1,1,0,0,0,20.71,36.71Zm0,8,4-4-1.42-1.42-3.42,3.42-2.32-1.54-1.1,1.66,3,2A.92.92,0,0,0,20,45,1,1,0,0,0,20.71,44.71ZM53,47a1,1,0,0,0-1-1H41V35a1,1,0,0,0-1-1A13,13,0,1,0,53,47ZM39,47a1,1,0,0,0,1,1H51A11,11,0,1,1,39,36Zm18-4A13,13,0,0,0,44,30a1,1,0,0,0-1,1V43a1,1,0,0,0,1,1H56A1,1,0,0,0,57,43ZM45,32A11,11,0,0,1,55,42H45Z" data-name="36 Survey Analytics, Clipboard, pie chart, Data Evaluation"></path></svg>