<svg xmlns="http://www.w3.org/2000/svg" enable-background="new 0 0 50 50" viewBox="0 0 50 50" id="technical-drawing"><path d="M41.4,19.5v-4.8c0-0.5-0.3-0.9-0.8-1l-3.4-0.8c-0.2-0.5-0.4-1-0.6-1.4l1.8-2.9c0.3-0.4,0.2-0.9-0.1-1.2L34.8,4
		c-0.3-0.3-0.8-0.4-1.2-0.1l-3,1.8c-0.5-0.2-1-0.4-1.4-0.6l-0.8-3.3c-0.1-0.4-0.5-0.8-1-0.8h-4.9c-0.5,0-0.9,0.3-1,0.8l-0.8,3.4
		c-0.5,0.2-1,0.4-1.4,0.6l-2.9-1.8c-0.4-0.2-0.9-0.2-1.2,0.1l-3.5,3.4c-0.3,0.3-0.4,0.8-0.1,1.2l1.8,2.9c-0.2,0.5-0.4,0.9-0.6,1.4
		l-3.4,0.8c-0.5,0.1-0.8,0.5-0.8,1v4.8c0,0.5,0.3,0.9,0.8,1l3.4,0.8c0.2,0.5,0.4,1,0.6,1.4l-1.8,2.9c-0.3,0.4-0.2,0.9,0.1,1.2
		l3.5,3.4c0.2,0.2,0.4,0.3,0.7,0.3c0.2,0,0.4,0,0.5-0.1l3-1.8c0.2,0.1,0.3,0.1,0.5,0.2l-2.6,6.3c-1-0.6-2-1.2-2.8-2
		c-0.4-0.4-1-0.3-1.4,0.1c-0.4,0.4-0.3,1,0.1,1.4c1,0.9,2.2,1.7,3.4,2.4l-4.3,10.5c-0.2,0.5,0,1.1,0.6,1.3c0.5,0.2,1.1,0,1.3-0.6
		l4.2-10.4c1.8,0.7,3.7,1.1,5.6,1.2v1.5c0,0.6,0.4,1,1,1s1-0.4,1-1v-1.4c1.9-0.1,3.8-0.5,5.6-1.2l4.2,10.4c0.2,0.5,0.8,0.8,1.3,0.6
		c0.5-0.2,0.8-0.8,0.6-1.3l-4.3-10.5c2.2-1.2,4.2-2.8,5.8-4.9c0.3-0.4,0.3-1.1-0.2-1.4c-0.4-0.3-1.1-0.3-1.4,0.2
		c-1.4,1.8-3.1,3.2-4.9,4.2l-2.6-6.3c0.2-0.1,0.4-0.2,0.6-0.3l2.9,1.8c0.4,0.2,0.9,0.2,1.2-0.1l3.5-3.4c0.3-0.3,0.4-0.8,0.1-1.2
		l-1.8-2.9c0.2-0.5,0.4-1,0.6-1.4l3.3-0.8C41,20.4,41.4,20,41.4,19.5z M30.8,36.1c-1.5,0.6-3.2,1-4.8,1.1v-1.4c0-0.6-0.4-1-1-1
		s-1,0.4-1,1v1.4c-1.7-0.1-3.3-0.5-4.8-1.1l4.6-11.4c0.4,0.1,0.8,0.2,1.2,0.2c0.4,0,0.8-0.1,1.2-0.2L30.8,36.1z M21.8,19.7
		c0-1.7,1.4-3.2,3.2-3.2c1.7,0,3.2,1.4,3.2,3.2c0,1.7-1.4,3.2-3.2,3.2C23.3,22.9,21.8,21.4,21.8,19.7z M39.4,18.7l-3.1,0.7
		c-0.4,0.1-0.6,0.4-0.7,0.7c-0.2,0.7-0.5,1.4-0.9,2.1c-0.2,0.3-0.2,0.7,0,1l1.7,2.7L34,28.3l-2.7-1.7c-0.3-0.2-0.7-0.2-1,0
		c-0.3,0.2-0.6,0.3-0.9,0.4l-1.3-3.2c1.3-0.9,2.1-2.4,2.1-4.1c0-2.5-1.8-4.6-4.2-5.1v-2.4c0-0.6-0.4-1-1-1s-1,0.4-1,1v2.4
		c-2.4,0.5-4.2,2.6-4.2,5.1c0,1.7,0.8,3.2,2.1,4.1L20.6,27c-0.3-0.1-0.6-0.2-0.8-0.4c-0.3-0.2-0.7-0.1-1,0l-2.8,1.7l-2.3-2.3
		l1.7-2.7c0.2-0.3,0.2-0.7,0-1c-0.4-0.6-0.7-1.3-0.9-2.1c-0.1-0.3-0.4-0.6-0.7-0.7l-3.2-0.7v-3.2l3.1-0.7c0.4-0.1,0.6-0.4,0.7-0.7
		c0.2-0.7,0.5-1.4,0.8-2.1c0.2-0.3,0.2-0.7,0-1l-1.7-2.7L16,6l2.7,1.7c0.3,0.2,0.7,0.2,1,0c0.6-0.3,1.3-0.6,2.2-0.9
		c0.3-0.1,0.6-0.4,0.7-0.7L23.3,3h3.3l0.7,3.1c0.1,0.4,0.4,0.6,0.7,0.7c0.7,0.2,1.4,0.5,2.1,0.9c0.3,0.2,0.7,0.2,1,0L33.9,6l2.3,2.3
		L34.6,11c-0.2,0.3-0.2,0.7,0,1c0.4,0.7,0.7,1.4,0.9,2.1c0.1,0.3,0.4,0.6,0.7,0.7l3.2,0.7V18.7z"></path></svg>